<svg width="49" height="48" viewBox="0 0 49 48" fill="none" xmlns="http://www.w3.org/2000/svg">
<g clip-path="url(#clip0_1_529)">
<path d="M17.9907 11.7061H10.9967C10.3494 11.7061 9.82483 12.2307 9.82483 12.8779C9.82483 13.5252 10.3494 14.0498 10.9967 14.0498H17.9907C18.6377 14.0498 19.1626 13.5252 19.1626 12.8779C19.1626 12.2307 18.6377 11.7061 17.9907 11.7061Z" fill="#F79901"/>
<path d="M17.9907 16.3938H10.9967C10.3494 16.3938 9.82483 16.9184 9.82483 17.5657C9.82483 18.213 10.3494 18.7376 10.9967 18.7376H17.9907C18.6377 18.7376 19.1626 18.213 19.1626 17.5657C19.1626 16.9184 18.6377 16.3938 17.9907 16.3938Z" fill="#F79901"/>
<path d="M17.9907 21.0815H10.9967C10.3494 21.0815 9.82483 21.6061 9.82483 22.2534C9.82483 22.9007 10.3494 23.4253 10.9967 23.4253H17.9907C18.6377 23.4253 19.1626 22.9007 19.1626 22.2534C19.1626 21.6061 18.6377 21.0815 17.9907 21.0815Z" fill="#F79901"/>
<path d="M17.9907 25.7695H10.9967C10.3494 25.7695 9.82483 26.2941 9.82483 26.9414C9.82483 27.5887 10.3494 28.1133 10.9967 28.1133H17.9907C18.6377 28.1133 19.1626 27.5887 19.1626 26.9414C19.1626 26.2941 18.6377 25.7695 17.9907 25.7695Z" fill="#F79901"/>
<path d="M17.9907 30.5356H10.9967C10.3494 30.5356 9.82483 31.0605 9.82483 31.7075C9.82483 32.3548 10.3494 32.8794 10.9967 32.8794H17.9907C18.6377 32.8794 19.1626 32.3548 19.1626 31.7075C19.1626 31.0605 18.6377 30.5356 17.9907 30.5356Z" fill="#F79901"/>
<path d="M21.9263 14.0498H28.9203C29.5676 14.0498 30.0922 13.5252 30.0922 12.8779C30.0922 12.2307 29.5676 11.7061 28.9203 11.7061H21.9263C21.2793 11.7061 20.7544 12.2307 20.7544 12.8779C20.7544 13.5252 21.2793 14.0498 21.9263 14.0498Z" fill="#F79901"/>
<path d="M21.9263 18.7376H28.9203C29.5676 18.7376 30.0922 18.213 30.0922 17.5657C30.0922 16.9184 29.5676 16.3938 28.9203 16.3938H21.9263C21.2793 16.3938 20.7544 16.9184 20.7544 17.5657C20.7544 18.213 21.2793 18.7376 21.9263 18.7376Z" fill="#F79901"/>
<path d="M26.4667 22.2534C26.4667 21.6061 25.9421 21.0815 25.2948 21.0815H21.9263C21.2793 21.0815 20.7544 21.6061 20.7544 22.2534C20.7544 22.9007 21.2793 23.4253 21.9263 23.4253H25.2948C25.9421 23.4253 26.4667 22.9007 26.4667 22.2534Z" fill="#F79901"/>
<path d="M37.5681 31.0303C37.0633 30.6253 36.326 30.7062 35.9208 31.211L32.9026 34.9738L31.034 33.62C30.51 33.2401 29.7769 33.3573 29.3973 33.8813C29.0177 34.4055 29.1349 35.1383 29.6588 35.5179L32.4308 37.5263C32.6383 37.6764 32.8788 37.7494 33.1177 37.7494C33.4616 37.7494 33.8016 37.5983 34.0323 37.3105L37.7491 32.6776C38.154 32.1729 38.0732 31.4353 37.5681 31.0303Z" fill="#F79901"/>
<path d="M40.5301 27.4329C39.0036 25.8796 37.0422 24.9006 34.917 24.6122V8.71954C34.917 6.11731 32.7997 4 30.1974 4H9.71985C7.11731 4 5 6.11731 5 8.71954V35.8658C5 38.4684 7.11731 40.5857 9.71954 40.5857H26.1896C28.0429 42.7628 30.7077 44 33.5907 44C38.9572 44 43.3231 39.6311 43.3231 34.2609C43.3231 31.6901 42.3312 29.2652 40.5301 27.4329ZM7.34375 35.8658V8.71954C7.34375 7.40973 8.40973 6.34375 9.71985 6.34375H30.1974C31.5076 6.34375 32.5732 7.40973 32.5732 8.71954V24.575C27.6831 25.0855 23.8583 29.2344 23.8583 34.2609C23.8583 35.6541 24.1489 37.0011 24.7061 38.2416H9.71985C8.40973 38.2416 7.34375 37.176 7.34375 35.8658ZM33.5907 41.6562C31.2503 41.6562 29.0988 40.5817 27.6874 38.7086C26.7157 37.4186 26.2018 35.8808 26.2018 34.2609C26.2018 30.1832 29.5166 26.8656 33.5907 26.8656C33.6292 26.8656 33.6679 26.8662 33.7064 26.8668L33.7244 26.8671C35.6693 26.9016 37.4927 27.6859 38.8586 29.0757C40.2261 30.467 40.9793 32.3087 40.9793 34.2609C40.9793 38.3387 37.6648 41.6562 33.5907 41.6562Z" fill="#F79901"/>
</g>
<defs>
<clipPath id="clip0_1_529">
<rect width="38.3594" height="40" fill="white" transform="translate(5 4)"/>
</clipPath>
</defs>
</svg>
